<?xml version="1.0" encoding="UTF-8" standalone="no"?>
<!-- Created with Inkscape (http://www.inkscape.org/) -->

<svg
   xmlns:dc="http://purl.org/dc/elements/1.1/"
   xmlns:cc="http://creativecommons.org/ns#"
   xmlns:rdf="http://www.w3.org/1999/02/22-rdf-syntax-ns#"
   xmlns:svg="http://www.w3.org/2000/svg"
   xmlns="http://www.w3.org/2000/svg"
   xmlns:sodipodi="http://sodipodi.sourceforge.net/DTD/sodipodi-0.dtd"
   xmlns:inkscape="http://www.inkscape.org/namespaces/inkscape"
   width="67.740387mm"
   height="67.740387mm"
   viewBox="0 0 240.02499 240.02499"
   id="svg3566"
   version="1.1"
   inkscape:version="0.91 r13725"
   sodipodi:docname="logo.svg">
  <defs
     id="defs3568" />
  <sodipodi:namedview
     id="base"
     pagecolor="#ffffff"
     bordercolor="#666666"
     borderopacity="1.0"
     inkscape:pageopacity="0.0"
     inkscape:pageshadow="2"
     inkscape:zoom="0.35"
     inkscape:cx="326.44107"
     inkscape:cy="-222.84464"
     inkscape:document-units="px"
     inkscape:current-layer="layer1"
     showgrid="false"
     inkscape:window-width="1366"
     inkscape:window-height="724"
     inkscape:window-x="0"
     inkscape:window-y="25"
     inkscape:window-maximized="1"
     fit-margin-top="0"
     fit-margin-left="0"
     fit-margin-right="0"
     fit-margin-bottom="0" />
  <metadata
     id="metadata3571">
    <rdf:RDF>
      <cc:Work
         rdf:about="">
        <dc:format>image/svg+xml</dc:format>
        <dc:type
           rdf:resource="http://purl.org/dc/dcmitype/StillImage" />
        <dc:title></dc:title>
      </cc:Work>
    </rdf:RDF>
  </metadata>
  <g
     inkscape:label="Layer 1"
     inkscape:groupmode="layer"
     id="layer1"
     transform="translate(-48.558929,-69.492562)">
    <path
       d="m 288.58393,189.49756 c 0,66.28375 -53.73125,120.02 -120.015,120.02 -66.28,0 -120.010001,-53.73625 -120.010001,-120.02 0,-66.27875 53.730001,-120.004998 120.010001,-120.004998 66.28375,0 120.015,53.726248 120.015,120.004998"
       style="fill:#50ade5;fill-opacity:1;fill-rule:nonzero;stroke:none"
       id="path3422"
       inkscape:connector-curvature="0" />
    <path
       d="m 188.07018,143.85256 c -5.75625,3.2775 -12.40625,5.1525 -19.49625,5.1525 -6.74875,0 -13.08125,-1.685 -18.63375,-4.65875 -1.79125,6.18625 -5.12125,12.03625 -10.00875,16.91875 -4.74625,4.74625 -10.39625,8.0225 -16.40125,9.84375 2.895,5.49375 4.545,11.7525 4.545,18.39375 0,6.5625 -1.60625,12.74875 -4.4425,18.18875 6.255,1.7775 12.1675,5.12625 17.08875,10.04375 4.78625,4.805 8.09125,10.5125 9.9075,16.5825 5.38125,-2.755 11.475,-4.3175 17.935,-4.3175 6.82625,0 13.2375,1.72875 18.8375,4.77625 1.83125,-5.9375 5.0925,-11.53875 9.795,-16.24 4.84875,-4.84 10.625,-8.165 16.7775,-9.97625 -3.125,-5.645 -4.9075,-12.14375 -4.9075,-19.0575 0,-7.0025 1.82125,-13.565 5.025,-19.2775 -5.88875,-1.83625 -11.43625,-5.0875 -16.10375,-9.75625 -4.805,-4.795 -8.11,-10.53125 -9.9175,-16.61625"
       style="fill:#95cbef;fill-opacity:1;fill-rule:nonzero;stroke:none"
       id="path3424"
       inkscape:connector-curvature="0" />
    <path
       d="m 98.525179,151.27506 c 3.545001,-6.42625 8.027501,-12.485 13.481251,-17.945 5.57625,-5.57125 11.7775,-10.13625 18.37375,-13.72 -0.855,-3.2175 -1.31375,-6.60625 -1.31375,-10.1025 0,-3.81375 0.56125,-7.505 1.5725,-11.006248 -14.94625,-7.9975 -33.950001,-5.6975 -46.562501,6.913748 -12.53375,12.54 -14.8825,31.41625 -7.02625,46.30875 3.6425,-1.1125 7.52,-1.70875 11.53375,-1.70875 3.4325,0 6.7625,0.43 9.94125,1.26"
       style="fill:#83c3ec;fill-opacity:1;fill-rule:nonzero;stroke:none"
       id="path3426"
       inkscape:connector-curvature="0" />
    <path
       d="m 123.53018,171.10881 c 6.005,-1.82125 11.655,-5.0975 16.40125,-9.84375 4.8875,-4.8825 8.2175,-10.7325 10.00875,-16.91875 -9.545,-5.1225 -16.7425,-14.03375 -19.56,-24.73625 -6.59625,3.58375 -12.7975,8.14875 -18.37375,13.72 -5.45375,5.46 -9.93625,11.51875 -13.481251,17.945 10.853751,2.8125 19.887501,10.13125 25.005001,19.83375"
       style="fill:#61b4e7;fill-opacity:1;fill-rule:nonzero;stroke:none"
       id="path3428"
       inkscape:connector-curvature="0" />
    <path
       d="m 239.00268,227.82756 c -3.6075,6.69 -8.2225,12.97875 -13.87125,18.6375 -5.5325,5.5225 -11.675,10.05375 -18.20375,13.62875 0.7375,3.0075 1.13375,6.15125 1.13375,9.38875 0,4.0775 -0.61125,8.00375 -1.75375,11.695 14.97125,8.125 34.0875,5.85875 46.75375,-6.7925 12.72375,-12.73375 14.93125,-31.9825 6.65,-46.99625 -3.535,1.05375 -7.275,1.60625 -11.1525,1.60625 -3.29625,0 -6.49875,-0.41 -9.55625,-1.1675"
       style="fill:#83c3ec;fill-opacity:1;fill-rule:nonzero;stroke:none"
       id="path3430"
       inkscape:connector-curvature="0" />
    <path
       d="m 213.97393,208.56006 c -6.1525,1.81125 -11.92875,5.1325 -16.7775,9.97625 -4.7025,4.70125 -7.96375,10.3025 -9.795,16.24 9.64375,5.24375 16.85625,14.385 19.52625,25.3175 6.52875,-3.575 12.67125,-8.11125 18.20375,-13.63375 5.64875,-5.65375 10.26375,-11.9425 13.87125,-18.6325 -10.78125,-2.67625 -19.79375,-9.78 -25.02875,-19.2675"
       style="fill:#61b4e7;fill-opacity:1;fill-rule:nonzero;stroke:none"
       id="path3432"
       inkscape:connector-curvature="0" />
    <path
       d="m 130.21393,260.09381 c -6.5275,-3.575 -12.68,-8.10125 -18.2075,-13.63375 -5.65,-5.65375 -10.26375,-11.9425 -13.867501,-18.6325 -3.06625,0.7575 -6.26,1.1675 -9.555,1.1675 -3.76,0 -7.4075,-0.5375 -10.855,-1.50875 -7.72,14.8675 -5.35125,33.6275 7.13375,46.1075 12.42125,12.4175 31.040001,14.835 45.883751,7.25625 -1.08375,-3.59375 -1.675,-7.4025 -1.675,-11.3575 0,-3.2425 0.4,-6.39125 1.1425,-9.39875"
       style="fill:#83c3ec;fill-opacity:1;fill-rule:nonzero;stroke:none"
       id="path3434"
       inkscape:connector-curvature="0" />
    <path
       d="m 150.62893,234.31756 c -1.81625,-6.07 -5.12125,-11.7775 -9.9075,-16.5825 -4.92125,-4.9175 -10.83375,-8.26625 -17.08875,-10.04375 -5.15625,9.91625 -14.395,17.3775 -25.493751,20.13625 3.603751,6.69 8.217501,12.97875 13.867501,18.6325 5.5275,5.5325 11.68,10.05875 18.2075,13.63375 2.74875,-11.275 10.3175,-20.625 20.415,-25.77625"
       style="fill:#61b4e7;fill-opacity:1;fill-rule:nonzero;stroke:none"
       id="path3436"
       inkscape:connector-curvature="0" />
    <path
       d="m 206.75768,119.61006 c 6.59625,3.58375 12.7975,8.14875 18.37375,13.72 5.44375,5.46 9.93125,11.51375 13.47625,17.945 3.18875,-0.83 6.51375,-1.265 9.95625,-1.265 4.12625,0 8.09125,0.63 11.82625,1.8075 8.4125,-15.045 6.24,-34.415 -6.5475,-47.1925 -12.8525,-12.861248 -32.35875,-14.994998 -47.4275,-6.421248 1.06,3.588748 1.64625,7.372498 1.64625,11.313748 0,3.49125 -0.455,6.875 -1.30375,10.0925"
       style="fill:#83c3ec;fill-opacity:1;fill-rule:nonzero;stroke:none"
       id="path3438"
       inkscape:connector-curvature="0" />
    <path
       d="m 188.07018,143.85256 c 1.8075,6.085 5.1125,11.82125 9.9175,16.61625 4.6675,4.66875 10.215,7.92 16.10375,9.75625 5.185,-9.2625 13.99875,-16.22 24.51625,-18.95 -3.545,-6.43125 -8.0325,-12.485 -13.47625,-17.945 -5.57625,-5.57125 -11.7775,-10.13625 -18.37375,-13.72 -2.74,10.37625 -9.57625,19.0575 -18.6875,24.2425"
       style="fill:#61b4e7;fill-opacity:1;fill-rule:nonzero;stroke:none"
       id="path3440"
       inkscape:connector-curvature="0" />
    <path
       d="m 145.96143,113.16006 c 14.83875,-4.35625 30.67875,-4.32625 45.5025,0.0775 1.72875,-3.08625 3.90125,-5.99625 6.52375,-8.6125 2.56875,-2.57375 5.405,-4.707498 8.4225,-6.421248 -4.8625,-16.29875 -19.95625,-28.17875 -37.84125,-28.17875 -17.99875,0 -33.16,12.02625 -37.93,28.47625 3.34,1.792498 6.475,4.087498 9.2925,6.904998 2.3775,2.3875 4.38875,4.98 6.03,7.75375"
       style="fill:#83c3ec;fill-opacity:1;fill-rule:nonzero;stroke:none"
       id="path3442"
       inkscape:connector-curvature="0" />
    <path
       d="m 149.94018,144.34631 c 5.5525,2.96875 11.885,4.65875 18.63375,4.65875 7.09,0 13.74,-1.875 19.49625,-5.1525 -3.0125,-10.12125 -1.88375,-21.21 3.39375,-30.615 -14.82375,-4.40375 -30.66375,-4.43375 -45.5025,-0.0775 5.64875,9.4825 6.9775,20.83 3.97875,31.18625"
       style="fill:#61b4e7;fill-opacity:1;fill-rule:nonzero;stroke:none"
       id="path3444"
       inkscape:connector-curvature="0" />
    <path
       d="m 130.38018,119.61006 c 5,-2.725 10.225,-4.8775 15.58125,-6.45 -1.64125,-2.77375 -3.6525,-5.36625 -6.03,-7.75375 -2.8175,-2.8175 -5.9575,-5.1125 -9.2925,-6.904998 -1.01125,3.506248 -1.5725,7.192498 -1.5725,11.006248 0,3.49625 0.45875,6.885 1.31375,10.1025"
       style="fill:#c9e4f7;fill-opacity:1;fill-rule:nonzero;stroke:none"
       id="path3446"
       inkscape:connector-curvature="0" />
    <path
       d="m 149.94018,144.34631 c 2.99875,-10.35625 1.67,-21.70375 -3.97875,-31.18625 -5.35625,1.5725 -10.58125,3.725 -15.58125,6.45 2.8175,10.7025 10.015,19.61375 19.56,24.73625"
       style="fill:#83c3ec;fill-opacity:1;fill-rule:nonzero;stroke:none"
       id="path3448"
       inkscape:connector-curvature="0" />
    <path
       d="m 191.46393,113.23756 c 5.25875,1.5725 10.38125,3.70125 15.29375,6.3725 0.84375,-3.2175 1.30375,-6.60125 1.30375,-10.0925 0,-3.94125 -0.58125,-7.725 -1.65125,-11.313748 -3.0175,1.71375 -5.85375,3.847498 -8.4175,6.421248 -2.6275,2.61625 -4.795,5.52625 -6.52875,8.6125"
       style="fill:#c9e4f7;fill-opacity:1;fill-rule:nonzero;stroke:none"
       id="path3450"
       inkscape:connector-curvature="0" />
    <path
       d="m 188.07018,143.85256 c 9.11125,-5.185 15.9475,-13.86625 18.6875,-24.2425 -4.9125,-2.67125 -10.035,-4.8 -15.29375,-6.3725 -5.2775,9.405 -6.40625,20.49375 -3.39375,30.615"
       style="fill:#83c3ec;fill-opacity:1;fill-rule:nonzero;stroke:none"
       id="path3452"
       inkscape:connector-curvature="0" />
    <path
       d="m 191.17143,266.64131 c -14.64875,4.29625 -30.28875,4.32625 -44.95125,0.0687 -1.5425,2.44125 -3.36875,4.76 -5.49875,6.88375 -3.0125,3.01375 -6.38625,5.425 -9.975,7.25625 4.8775,16.275 19.95625,28.135 37.8275,28.135 17.73375,0 32.74375,-11.69875 37.72875,-27.8075 -3.26625,-1.7725 -6.3425,-4.02875 -9.10625,-6.7925 -2.3675,-2.3775 -4.38,-4.985 -6.025,-7.74375"
       style="fill:#83c3ec;fill-opacity:1;fill-rule:nonzero;stroke:none"
       id="path3454"
       inkscape:connector-curvature="0" />
    <path
       d="m 187.40143,234.77631 c -5.6,-3.0475 -12.01125,-4.77625 -18.8375,-4.77625 -6.46,0 -12.55375,1.5625 -17.935,4.3175 3.2175,10.76625 1.74375,22.62625 -4.41375,32.3925 14.6625,4.2575 30.3075,4.2275 44.95625,-0.0687 -5.76625,-9.6975 -7.03125,-21.32375 -3.77,-31.865"
       style="fill:#61b4e7;fill-opacity:1;fill-rule:nonzero;stroke:none"
       id="path3456"
       inkscape:connector-curvature="0" />
    <path
       d="m 206.92768,260.09381 c -5.05375,2.76375 -10.33125,4.94625 -15.75625,6.5475 1.645,2.75875 3.6575,5.36625 6.025,7.74375 2.76375,2.76375 5.84,5.02 9.10625,6.7925 1.1475,-3.69125 1.75875,-7.6175 1.75875,-11.695 0,-3.2325 -0.40125,-6.38125 -1.13375,-9.38875"
       style="fill:#c9e4f7;fill-opacity:1;fill-rule:nonzero;stroke:none"
       id="path3458"
       inkscape:connector-curvature="0" />
    <path
       d="m 187.40143,234.77631 c -3.26125,10.54125 -1.99625,22.1675 3.77,31.865 5.425,-1.60125 10.7025,-3.78375 15.75625,-6.5475 -2.67,-10.92875 -9.8825,-20.07375 -19.52625,-25.3175"
       style="fill:#83c3ec;fill-opacity:1;fill-rule:nonzero;stroke:none"
       id="path3460"
       inkscape:connector-curvature="0" />
    <path
       d="m 146.21518,266.71006 c -5.5075,-1.5925 -10.87375,-3.81375 -16.00125,-6.61625 -0.7425,3.0075 -1.1425,6.15625 -1.1425,9.39875 0,3.955 0.59125,7.76375 1.675,11.3575 3.58875,-1.83125 6.9625,-4.2425 9.975,-7.25625 2.13,-2.12375 3.95625,-4.4425 5.49375,-6.88375"
       style="fill:#c9e4f7;fill-opacity:1;fill-rule:nonzero;stroke:none"
       id="path3462"
       inkscape:connector-curvature="0" />
    <path
       d="m 150.62893,234.31756 c -10.0975,5.15125 -17.66625,14.50125 -20.415,25.77625 5.1275,2.8025 10.49375,5.02375 16.00625,6.61625 6.1525,-9.76625 7.62625,-21.63125 4.40875,-32.3925"
       style="fill:#83c3ec;fill-opacity:1;fill-rule:nonzero;stroke:none"
       id="path3464"
       inkscape:connector-curvature="0" />
    <path
       d="m 288.05143,189.50256 c 0,-17.685 -11.63125,-32.66125 -27.66125,-37.685 -1.73875,3.105 -3.91125,6.025 -6.5475,8.65125 -2.6225,2.6375 -5.5325,4.8 -8.61875,6.53875 4.41375,14.81875 4.43875,30.65875 0.0875,45.48375 2.76375,1.66 5.36125,3.65625 7.75,6.03 2.685,2.71 4.8975,5.68875 6.65,8.8675 16.38125,-4.81 28.34,-19.95125 28.34,-37.88625"
       style="fill:#83c3ec;fill-opacity:1;fill-rule:nonzero;stroke:none"
       id="path3466"
       inkscape:connector-curvature="0" />
    <path
       d="m 214.09143,170.22506 c -3.20375,5.7125 -5.025,12.275 -5.025,19.2775 0,6.91375 1.7825,13.4125 4.9075,19.0575 10.4,-3.0425 21.80125,-1.73375 31.3375,3.93125 4.35125,-14.825 4.32625,-30.665 -0.0875,-45.48375 -9.56,5.35625 -20.87375,6.43 -31.1325,3.2175"
       style="fill:#61b4e7;fill-opacity:1;fill-rule:nonzero;stroke:none"
       id="path3468"
       inkscape:connector-curvature="0" />
    <path
       d="m 245.31143,212.49131 c -1.5475,5.2725 -3.66125,10.41 -6.30875,15.33625 3.0575,0.7575 6.26,1.1675 9.55625,1.1675 3.8775,0 7.6175,-0.5575 11.1525,-1.60625 -1.7525,-3.17875 -3.965,-6.1575 -6.65,-8.8675 -2.38875,-2.37375 -4.98625,-4.37 -7.75,-6.03"
       style="fill:#c9e4f7;fill-opacity:1;fill-rule:nonzero;stroke:none"
       id="path3470"
       inkscape:connector-curvature="0" />
    <path
       d="m 213.97393,208.56006 c 5.235,9.4875 14.2475,16.59125 25.02875,19.2675 2.6475,-4.92625 4.76125,-10.06375 6.30875,-15.33625 -9.53625,-5.665 -20.9375,-6.97375 -31.3375,-3.93125"
       style="fill:#83c3ec;fill-opacity:1;fill-rule:nonzero;stroke:none"
       id="path3472"
       inkscape:connector-curvature="0" />
    <path
       d="m 238.60768,151.27506 c 2.78875,5.03875 5.005,10.3075 6.61625,15.7325 3.08625,-1.73875 5.99625,-3.90125 8.61875,-6.53875 2.63625,-2.62625 4.80875,-5.54625 6.5475,-8.65125 -3.735,-1.1725 -7.7,-1.8025 -11.82625,-1.8025 -3.4425,0 -6.7675,0.43 -9.95625,1.26"
       style="fill:#c9e4f7;fill-opacity:1;fill-rule:nonzero;stroke:none"
       id="path3474"
       inkscape:connector-curvature="0" />
    <path
       d="m 214.09143,170.22506 c 10.25875,3.2125 21.5725,2.13875 31.1325,-3.2175 -1.61125,-5.425 -3.8275,-10.69375 -6.61625,-15.7325 -10.5175,2.725 -19.33125,9.6875 -24.51625,18.95"
       style="fill:#83c3ec;fill-opacity:1;fill-rule:nonzero;stroke:none"
       id="path3476"
       inkscape:connector-curvature="0" />
    <path
       d="m 91.757679,212.24131 c -4.24875,-14.6625 -4.22875,-30.2875 0.0675,-44.94625 -2.76375,-1.65 -5.37125,-3.6525 -7.74875,-6.03 -2.88625,-2.885 -5.225,-6.10875 -7.02625,-9.54125 -16.19125,4.9375 -27.95875,19.98125 -27.95875,37.77875 0,18.05125 12.09875,33.26125 28.6375,37.98375 1.82125,-3.51625 4.19375,-6.8075 7.13375,-9.75125 2.13375,-2.11875 4.44875,-3.945 6.895,-5.49375"
       style="fill:#83c3ec;fill-opacity:1;fill-rule:nonzero;stroke:none"
       id="path3478"
       inkscape:connector-curvature="0" />
    <path
       d="m 123.63268,207.69131 c 2.83625,-5.44 4.4425,-11.62625 4.4425,-18.18875 0,-6.64125 -1.65,-12.9 -4.545,-18.39375 -10.49875,3.19875 -22.05125,1.92375 -31.705001,-3.81375 -4.29625,14.65875 -4.31625,30.28375 -0.0675,44.95125 9.608751,-6.05375 21.240001,-7.5775 31.875001,-4.555"
       style="fill:#61b4e7;fill-opacity:1;fill-rule:nonzero;stroke:none"
       id="path3480"
       inkscape:connector-curvature="0" />
    <path
       d="m 91.825179,167.29506 c 1.62125,-5.5175 3.8675,-10.89375 6.7,-16.02 -3.17875,-0.83 -6.50875,-1.265 -9.94125,-1.265 -4.01375,0 -7.89125,0.60125 -11.53375,1.71375 1.80125,3.4325 4.14,6.65625 7.02625,9.54125 2.3775,2.3775 4.985,4.38 7.74875,6.03"
       style="fill:#c9e4f7;fill-opacity:1;fill-rule:nonzero;stroke:none"
       id="path3482"
       inkscape:connector-curvature="0" />
    <path
       d="m 123.53018,171.10881 c -5.1175,-9.7025 -14.15125,-17.02125 -25.005001,-19.83375 -2.8325,5.12625 -5.07875,10.5025 -6.7,16.02 9.653751,5.7425 21.206251,7.0125 31.705001,3.81375"
       style="fill:#83c3ec;fill-opacity:1;fill-rule:nonzero;stroke:none"
       id="path3484"
       inkscape:connector-curvature="0" />
    <path
       d="m 98.138929,227.82756 c -2.695,-4.995 -4.82375,-10.225 -6.38125,-15.58125 -2.44625,1.54375 -4.76125,3.37 -6.895,5.48875 -2.94,2.94375 -5.3125,6.235 -7.13375,9.75125 3.4475,0.97125 7.09,1.50875 10.855,1.50875 3.295,0 6.48875,-0.41 9.555,-1.1675"
       style="fill:#c9e4f7;fill-opacity:1;fill-rule:nonzero;stroke:none"
       id="path3486"
       inkscape:connector-curvature="0" />
    <path
       d="m 123.63268,207.69131 c -10.635,-3.0225 -22.26625,-1.49875 -31.875001,4.555 1.5575,5.35625 3.68625,10.58625 6.38125,15.58125 11.098751,-2.75875 20.337501,-10.22 25.493751,-20.13625"
       style="fill:#83c3ec;fill-opacity:1;fill-rule:nonzero;stroke:none"
       id="path3488"
       inkscape:connector-curvature="0" />
  </g>
</svg>
