<?xml version="1.0" encoding="UTF-8" standalone="no"?>
<!-- Created with Inkscape (http://www.inkscape.org/) -->

<svg
   xmlns:dc="http://purl.org/dc/elements/1.1/"
   xmlns:cc="http://creativecommons.org/ns#"
   xmlns:rdf="http://www.w3.org/1999/02/22-rdf-syntax-ns#"
   xmlns:svg="http://www.w3.org/2000/svg"
   xmlns="http://www.w3.org/2000/svg"
   xmlns:sodipodi="http://sodipodi.sourceforge.net/DTD/sodipodi-0.dtd"
   xmlns:inkscape="http://www.inkscape.org/namespaces/inkscape"
   width="145.161mm"
   height="37.992401mm"
   viewBox="0 0 514.34998 134.61874"
   id="svg3700"
   version="1.1"
   inkscape:version="0.91 r13725"
   sodipodi:docname="topomedics.svg">
  <defs
     id="defs3702" />
  <sodipodi:namedview
     id="base"
     pagecolor="#ffffff"
     bordercolor="#666666"
     borderopacity="1.0"
     inkscape:pageopacity="0.0"
     inkscape:pageshadow="2"
     inkscape:zoom="0.35"
     inkscape:cx="257.175"
     inkscape:cy="67.309375"
     inkscape:document-units="px"
     inkscape:current-layer="layer1"
     showgrid="false"
     inkscape:window-width="1366"
     inkscape:window-height="724"
     inkscape:window-x="0"
     inkscape:window-y="25"
     inkscape:window-maximized="1"
     fit-margin-top="0"
     fit-margin-left="0"
     fit-margin-right="0"
     fit-margin-bottom="0" />
  <metadata
     id="metadata3705">
    <rdf:RDF>
      <cc:Work
         rdf:about="">
        <dc:format>image/svg+xml</dc:format>
        <dc:type
           rdf:resource="http://purl.org/dc/dcmitype/StillImage" />
        <dc:title></dc:title>
      </cc:Work>
    </rdf:RDF>
  </metadata>
  <g
     inkscape:label="Layer 1"
     inkscape:groupmode="layer"
     id="layer1"
     transform="translate(-117.825,-465.05283)">
    <path
       d="m 133.9725,474.38908 -16.1475,0 0,-8.30625 43.2125,0 0,8.30625 -16.1475,0 0,56.08875 -10.9175,0 0,-56.08875 z"
       style="fill:#656263;fill-opacity:1;fill-rule:nonzero;stroke:none"
       id="path3402"
       inkscape:connector-curvature="0" />
    <path
       d="m 189.51875,523.75908 c 11.01625,0 13.99875,-11.75875 13.99875,-25.47875 0,-13.72125 -2.9825,-25.47875 -13.99875,-25.47875 -11.10375,0 -13.99375,11.7575 -13.99375,25.47875 0,13.72 2.89,25.47875 13.99375,25.47875 m -26.035,-25.47875 c 0,-18.76 5.87875,-33.2225 26.035,-33.2225 20.06875,0 26.04,14.4625 26.04,33.2225 0,18.76 -5.97125,33.2225 -26.04,33.2225 -20.15625,0 -26.035,-14.4625 -26.035,-33.2225"
       style="fill:#656263;fill-opacity:1;fill-rule:nonzero;stroke:none"
       id="path3404"
       inkscape:connector-curvature="0" />
    <path
       d="m 237.4925,495.29158 5.69375,0 c 6.5325,0 11.47875,-3.26625 11.47875,-10.64 0,-8.305 -4.29625,-10.825 -11.47875,-10.825 l -5.69375,0 0,21.465 z m -10.9175,-29.20875 16.61125,0 c 9.985,0 22.5825,1.49375 22.5825,18.56875 0,15.40125 -13.6225,18.38875 -22.5825,18.38875 l -5.69375,0 0,27.4375 -10.9175,0 0,-64.395 z"
       style="fill:#656263;fill-opacity:1;fill-rule:nonzero;stroke:none"
       id="path3406"
       inkscape:connector-curvature="0" />
    <path
       d="m 296.6625,523.75908 c 11.01125,0 13.99875,-11.75875 13.99875,-25.47875 0,-13.72125 -2.9875,-25.47875 -13.99875,-25.47875 -11.10875,0 -13.99875,11.7575 -13.99875,25.47875 0,13.72 2.89,25.47875 13.99875,25.47875 m -26.04,-25.47875 c 0,-18.76 5.88375,-33.2225 26.04,-33.2225 20.06375,0 26.035,14.4625 26.035,33.2225 0,18.76 -5.97125,33.2225 -26.035,33.2225 -20.15625,0 -26.04,-14.4625 -26.04,-33.2225"
       style="fill:#656263;fill-opacity:1;fill-rule:nonzero;stroke:none"
       id="path3408"
       inkscape:connector-curvature="0" />
    <path
       d="m 333.71375,466.08283 14.93125,0 17.92,51.42125 0.185,0 18.01375,-51.42125 14.83875,0 0,64.395 -9.98625,0 0,-50.7725 -0.185,0 -17.735,50.7725 -10.0775,0 -17.73,-50.7725 -0.19,0 0,50.7725 -9.985,0 0,-64.395 z"
       style="fill:#656263;fill-opacity:1;fill-rule:nonzero;stroke:none"
       id="path3410"
       inkscape:connector-curvature="0" />
    <path
       d="m 413.3225,466.08283 37.6125,0 0,8.30625 -26.69375,0 0,18.57375 25.2925,0 0,8.30125 -25.2925,0 0,20.9075 27.44125,0 0,8.30625 -38.36,0 0,-64.395 z"
       style="fill:#656263;fill-opacity:1;fill-rule:nonzero;stroke:none"
       id="path3412"
       inkscape:connector-curvature="0" />
    <path
       d="m 472.77125,522.72783 5.03875,0 c 11.01625,0 16.24,-4.8475 16.24,-24.63375 0,-15.67875 -2.705,-24.2675 -16.24,-24.2675 l -5.03875,0 0,48.90125 z m -10.91875,-56.645 15.9575,0 c 20.63,0 28.28125,8.96 28.28125,32.01125 0,29.77125 -14.93125,32.38375 -28.28125,32.38375 l -15.9575,0 0,-64.395 z"
       style="fill:#656263;fill-opacity:1;fill-rule:nonzero;stroke:none"
       id="path3414"
       inkscape:connector-curvature="0" />
    <path
       d="m 516.82375,466.08283 10.9175,0 0,64.395 -10.9175,0 0,-64.395 z"
       style="fill:#656263;fill-opacity:1;fill-rule:nonzero;stroke:none"
       id="path3416"
       inkscape:connector-curvature="0" />
    <path
       d="m 583.17625,527.77283 c -3.08125,1.30375 -9.8,3.73 -17.54375,3.73 -18.76,0 -27.06625,-13.4375 -27.06625,-33.50125 0,-18.95 6.9975,-32.94875 25.38625,-32.94875 14.93125,0 21.65,8.68125 21.65,18.66625 l -12.13375,0 c 0,-5.03875 -1.1175,-10.9175 -9.51625,-10.9175 -11.29375,0 -13.345,13.4375 -13.345,23.52 0,15.39625 4.385,26.5975 17.54375,26.5975 7.1875,0 13.2525,-3.73625 15.025,-4.76125 l 0,9.615 z"
       style="fill:#656263;fill-opacity:1;fill-rule:nonzero;stroke:none"
       id="path3418"
       inkscape:connector-curvature="0" />
    <path
       d="m 627.32125,476.90783 c -4.29125,-1.68 -9.60875,-4.10625 -16.1475,-4.10625 -5.41,0 -9.70125,2.42625 -9.70125,7.935 0,11.38625 30.7025,13.06625 30.7025,32.475 0,12.04125 -9.70625,18.29125 -23.70625,18.29125 -8.305,0 -15.86375,-2.24125 -17.82625,-2.705 l 0,-11.29375 c 3.8275,2.33375 10.0825,6.255 18.2025,6.255 8.58375,0 11.28875,-4.76125 11.28875,-8.96 0,-14 -30.7025,-14.83875 -30.7025,-33.13 0,-11.48 9.985,-16.61125 22.11875,-16.61125 7.1875,0 13.4375,1.30375 15.77125,1.7725 l 0,10.0775 z"
       style="fill:#656263;fill-opacity:1;fill-rule:nonzero;stroke:none"
       id="path3420"
       inkscape:connector-curvature="0" />
    <path
       d="m 225.13375,577.87033 c 0.7375,0.195 1.67,0.26875 2.79375,0.26875 4.0725,0 6.5575,-1.9775 6.5575,-5.5475 0,-3.4525 -2.44625,-5.1225 -6.1675,-5.1225 -1.47375,0 -2.6025,0.1175 -3.18375,0.27375 l 0,10.1275 z m -3.37375,-12.535 c 1.63125,-0.3075 3.765,-0.54125 6.48,-0.54125 3.335,0 5.78125,0.77625 7.33375,2.1725 1.43,1.24 2.32375,3.145 2.32375,5.435 0,2.3625 -0.6975,4.22875 -2.055,5.585 -1.7825,1.9 -4.6925,2.87125 -7.99375,2.87125 -1.005,0 -1.93875,-0.0438 -2.715,-0.23375 l 0,10.5125 -3.37375,0 0,-25.80125 z"
       style="fill:#656263;fill-opacity:1;fill-rule:nonzero;stroke:none"
       id="path3490"
       inkscape:connector-curvature="0" />
    <path
       d="m 241.6625,578.21658 c 0,-2.21125 -0.0388,-4.11125 -0.15125,-5.85875 l 2.98375,0 0.15625,3.68625 0.11625,0 c 0.855,-2.52 2.95,-4.11125 5.24,-4.11125 0.34625,0 0.62,0.0388 0.9275,0.0775 l 0,3.2225 c -0.34625,-0.0388 -0.69875,-0.0775 -1.1625,-0.0775 -2.40625,0 -4.11125,1.82125 -4.58,4.34 -0.0775,0.50875 -0.11625,1.05 -0.11625,1.5925 l 0,10.04875 -3.41375,0 0,-12.92 z"
       style="fill:#656263;fill-opacity:1;fill-rule:nonzero;stroke:none"
       id="path3492"
       inkscape:connector-curvature="0" />
    <path
       d="m 265.87625,579.92533 c 0.0337,-2.1725 -0.89375,-5.54625 -4.6975,-5.54625 -3.49125,0 -4.965,3.17875 -5.23375,5.54625 l 9.93125,0 z m -9.975,2.44125 c 0.0775,4.58 2.9925,6.48 6.40625,6.48 2.44125,0 3.955,-0.425 5.195,-0.96625 l 0.62,2.44125 c -1.20125,0.54625 -3.29625,1.205 -6.28375,1.205 -5.7425,0 -9.23375,-3.8425 -9.23375,-9.4675 0,-5.66375 3.37375,-10.12625 8.8475,-10.12625 6.1275,0 7.72,5.395 7.72,8.8475 0,0.6975 -0.0387,1.20125 -0.1175,1.58625 l -13.15375,0 z"
       style="fill:#656263;fill-opacity:1;fill-rule:nonzero;stroke:none"
       id="path3494"
       inkscape:connector-curvature="0" />
    <path
       d="m 286.785,590.43783 c -0.88875,0.43 -2.87125,1.08875 -5.39125,1.08875 -5.66375,0 -9.35,-3.8425 -9.35,-9.58375 0,-5.78125 3.96,-10.01 10.0875,-10.01 2.01625,0 3.80375,0.5025 4.73125,1.01 l -0.77625,2.5975 c -0.81,-0.42375 -2.09,-0.8925 -3.955,-0.8925 -4.30625,0 -6.63625,3.2225 -6.63625,7.09875 0,4.34625 2.79375,7.02125 6.51875,7.02125 1.93875,0 3.2225,-0.46375 4.19,-0.8875 l 0.58125,2.5575 z"
       style="fill:#656263;fill-opacity:1;fill-rule:nonzero;stroke:none"
       id="path3496"
       inkscape:connector-curvature="0" />
    <path
       d="m 290.78375,572.36158 3.4125,0 0,18.775 -3.4125,0 0,-18.775 z m 1.63125,-3.1825 c -1.24125,0 -2.05625,-0.9725 -2.05625,-2.095 0,-1.20125 0.85,-2.13375 2.13375,-2.13375 1.24,0 2.095,0.9325 2.095,2.13375 0,1.1225 -0.815,2.095 -2.13375,2.095 l -0.0387,0 z"
       style="fill:#656263;fill-opacity:1;fill-rule:nonzero;stroke:none"
       id="path3498"
       inkscape:connector-curvature="0" />
    <path
       d="m 299.3975,587.64533 c 1.04875,0.62 2.83125,1.31875 4.54,1.31875 2.44125,0 3.60875,-1.20125 3.60875,-2.79375 0,-1.63 -0.97125,-2.48 -3.4575,-3.4125 -3.4125,-1.24 -5,-3.10625 -5,-5.3175 0,-3.0225 2.48125,-5.5075 6.475,-5.5075 1.905,0 3.57,0.5025 4.58,1.16625 l -0.815,2.44125 c -0.7375,-0.42375 -2.095,-1.08375 -3.8375,-1.08375 -2.0225,0 -3.10625,1.1625 -3.10625,2.55875 0,1.5525 1.08375,2.25125 3.53,3.2175 3.21875,1.20625 4.9275,2.8375 4.9275,5.63 0,3.335 -2.5975,5.66375 -6.9825,5.66375 -2.05625,0 -3.955,-0.54625 -5.27875,-1.3225 l 0.81625,-2.55875 z"
       style="fill:#656263;fill-opacity:1;fill-rule:nonzero;stroke:none"
       id="path3500"
       inkscape:connector-curvature="0" />
    <path
       d="m 315.2275,572.36158 3.4125,0 0,18.775 -3.4125,0 0,-18.775 z m 1.63,-3.1825 c -1.24,0 -2.055,-0.9725 -2.055,-2.095 0,-1.20125 0.85375,-2.13375 2.13375,-2.13375 1.24,0 2.095,0.9325 2.095,2.13375 0,1.1225 -0.81625,2.095 -2.13375,2.095 l -0.04,0 z"
       style="fill:#656263;fill-opacity:1;fill-rule:nonzero;stroke:none"
       id="path3502"
       inkscape:connector-curvature="0" />
    <path
       d="m 332.1025,589.00283 c 3.26125,0 5.7075,-3.06625 5.7075,-7.33375 0,-3.17875 -1.59125,-7.17375 -5.63,-7.17375 -3.99375,0 -5.7375,3.72125 -5.7375,7.29125 0,4.115 2.325,7.21625 5.625,7.21625 l 0.035,0 z m -0.15125,2.56375 c -5.045,0 -9.005,-3.72625 -9.005,-9.66375 0,-6.28375 4.15625,-9.97 9.3125,-9.97 5.395,0 9.0375,3.92 9.0375,9.62375 0,6.9825 -4.84875,10.01 -9.30625,10.01 l -0.0387,0 z"
       style="fill:#656263;fill-opacity:1;fill-rule:nonzero;stroke:none"
       id="path3504"
       inkscape:connector-curvature="0" />
    <path
       d="m 345.6075,577.44033 c 0,-1.9775 -0.0387,-3.53 -0.15625,-5.07875 l 3.0275,0 0.195,3.0625 0.0788,0 c 0.9275,-1.74375 3.1,-3.49125 6.20625,-3.49125 2.5975,0 6.63,1.5525 6.63,7.9925 l 0,11.21125 -3.4125,0 0,-10.825 c 0,-3.0225 -1.1225,-5.58625 -4.34625,-5.58625 -2.20625,0 -3.955,1.5925 -4.575,3.49125 -0.15625,0.43 -0.23375,1.05 -0.23375,1.59125 l 0,11.32875 -3.41375,0 0,-13.69625 z"
       style="fill:#656263;fill-opacity:1;fill-rule:nonzero;stroke:none"
       id="path3506"
       inkscape:connector-curvature="0" />
    <path
       d="m 378.78125,583.61158 c 0,0.425 0.04,0.855 0.1175,1.24125 0.65875,2.3675 2.67625,3.99375 5.1175,3.99375 3.60875,0 5.7025,-2.91 5.7025,-7.2125 0,-3.80375 -1.9375,-7.02625 -5.585,-7.02625 -2.33,0 -4.4975,1.63125 -5.16125,4.195 -0.1125,0.425 -0.19125,0.88875 -0.19125,1.43 l 0,3.37875 z m -3.4125,-20.01875 3.4125,0 0,11.7525 0.0788,0 c 1.20125,-2.095 3.37375,-3.4125 6.40125,-3.4125 4.65375,0 7.91,3.88125 7.91,9.545 0,6.74875 -4.2675,10.08875 -8.4575,10.08875 -2.71375,0 -4.8475,-1.05 -6.28375,-3.53 l -0.0775,0 -0.19125,3.1 -2.94875,0 c 0.1125,-1.27875 0.15625,-3.17875 0.15625,-4.84875 l 0,-22.695 z"
       style="fill:#656263;fill-opacity:1;fill-rule:nonzero;stroke:none"
       id="path3508"
       inkscape:connector-curvature="0" />
    <path
       d="m 398.41,572.36158 4.0775,11.09375 c 0.46375,1.24125 0.9275,2.715 1.24,3.84375 l 0.0788,0 c 0.35125,-1.12875 0.7375,-2.56375 1.20125,-3.92125 l 3.725,-11.01625 3.60875,0 -5.1225,13.38375 c -2.44125,6.43625 -4.11125,9.6975 -6.44,11.75375 -1.70875,1.435 -3.335,2.01625 -4.19,2.1725 l -0.85375,-2.8325 c 0.85375,-0.2725 1.9775,-0.815 2.9875,-1.66875 0.93375,-0.7375 2.05625,-2.05625 2.87125,-3.8 0.15625,-0.35125 0.27375,-0.62 0.27375,-0.815 0,-0.195 -0.0775,-0.46375 -0.27375,-0.89375 l -6.90375,-17.3 3.72,0 z"
       style="fill:#656263;fill-opacity:1;fill-rule:nonzero;stroke:none"
       id="path3510"
       inkscape:connector-curvature="0" />
    <path
       d="m 427.16,588.50033 c 0.86,0.15625 2.1,0.15625 3.41875,0.15625 7.21125,0.0387 11.1325,-4.03875 11.1325,-11.09875 0.0387,-6.1675 -3.4525,-10.08875 -10.59125,-10.08875 -1.7425,0 -3.06625,0.15625 -3.96,0.3525 l 0,20.67875 z m -3.4075,-23.165 c 2.09,-0.3075 4.53625,-0.54125 7.21125,-0.54125 4.84875,0 8.30625,1.1275 10.59125,3.26125 2.36875,2.13375 3.72625,5.15625 3.72625,9.385 0,4.2675 -1.3575,7.75875 -3.765,10.16625 -2.48125,2.44625 -6.51375,3.76375 -11.5975,3.76375 -2.44625,0 -4.42375,-0.0775 -6.16625,-0.3125 l 0,-25.7225 z"
       style="fill:#656263;fill-opacity:1;fill-rule:nonzero;stroke:none"
       id="path3512"
       inkscape:connector-curvature="0" />
    <path
       d="m 461.575,579.92533 c 0.0387,-2.1725 -0.88875,-5.54625 -4.6925,-5.54625 -3.49125,0 -4.96625,3.17875 -5.24,5.54625 l 9.9325,0 z m -9.97125,2.44125 c 0.0788,4.58 2.98875,6.48 6.40625,6.48 2.44125,0 3.955,-0.425 5.195,-0.96625 l 0.62125,2.44125 c -1.20125,0.54625 -3.29625,1.205 -6.285,1.205 -5.7425,0 -9.23375,-3.8425 -9.23375,-9.4675 0,-5.66375 3.375,-10.12625 8.84875,-10.12625 6.1275,0 7.71875,5.395 7.71875,8.8475 0,0.6975 -0.0387,1.20125 -0.11625,1.58625 l -13.155,0 z"
       style="fill:#656263;fill-opacity:1;fill-rule:nonzero;stroke:none"
       id="path3514"
       inkscape:connector-curvature="0" />
    <path
       d="m 468.64,587.64533 c 1.045,0.62 2.8325,1.31875 4.53625,1.31875 2.44625,0 3.60875,-1.20125 3.60875,-2.79375 0,-1.63 -0.9675,-2.48 -3.4525,-3.4125 -3.41375,-1.24 -5.005,-3.10625 -5.005,-5.3175 0,-3.0225 2.485,-5.5075 6.48,-5.5075 1.89875,0 3.56875,0.5025 4.58,1.16625 l -0.81625,2.44125 c -0.73625,-0.42375 -2.09375,-1.08375 -3.8425,-1.08375 -2.01625,0 -3.1,1.1625 -3.1,2.55875 0,1.5525 1.08375,2.25125 3.53,3.2175 3.2175,1.20625 4.92625,2.8375 4.92625,5.63 0,3.335 -2.6025,5.66375 -6.9875,5.66375 -2.055,0 -3.955,-0.54625 -5.2725,-1.3225 l 0.815,-2.55875 z"
       style="fill:#656263;fill-opacity:1;fill-rule:nonzero;stroke:none"
       id="path3516"
       inkscape:connector-curvature="0" />
    <path
       d="m 484.47,572.36158 3.41375,0 0,18.775 -3.41375,0 0,-18.775 z m 1.63125,-3.1825 c -1.245,0 -2.06125,-0.9725 -2.06125,-2.095 0,-1.20125 0.855,-2.13375 2.13375,-2.13375 1.245,0 2.1,0.9325 2.1,2.13375 0,1.1225 -0.815,2.095 -2.13375,2.095 l -0.0387,0 z"
       style="fill:#656263;fill-opacity:1;fill-rule:nonzero;stroke:none"
       id="path3518"
       inkscape:connector-curvature="0" />
    <path
       d="m 506.19375,579.73033 c 0,-0.5425 -0.0387,-1.045 -0.19,-1.51375 -0.625,-2.01625 -2.25125,-3.6475 -4.77625,-3.6475 -3.25625,0 -5.585,2.75875 -5.585,7.13875 0,3.6475 1.89875,6.7525 5.54625,6.7525 2.13375,0 4.03875,-1.3175 4.73625,-3.53 0.19125,-0.54125 0.26875,-1.20125 0.26875,-1.82625 l 0,-3.37375 z m 3.4125,8.6525 c 0,4.345 -0.8875,6.94375 -2.675,8.6125 -1.86,1.66625 -4.4975,2.24625 -6.865,2.24625 -2.25125,0 -4.73125,-0.54125 -6.245,-1.5475 l 0.85375,-2.63625 c 1.24,0.81 3.17875,1.50875 5.5075,1.50875 3.49125,0 6.05,-1.82125 6.05,-6.5925 l 0,-2.055 -0.0775,0 c -1.00625,1.7425 -3.06125,3.13875 -5.9725,3.13875 -4.6575,0 -7.9925,-3.955 -7.9925,-9.19375 0,-6.3625 4.15,-9.93125 8.49625,-9.93125 3.25625,0 5.005,1.67 5.85875,3.26125 l 0.0787,0 0.1175,-2.8325 3.0225,0 c -0.1175,1.31875 -0.1575,2.87125 -0.1575,5.1175 l 0,10.90375 z"
       style="fill:#656263;fill-opacity:1;fill-rule:nonzero;stroke:none"
       id="path3520"
       inkscape:connector-curvature="0" />
    <path
       d="m 515.0025,577.44033 c 0,-1.9775 -0.0387,-3.53 -0.15125,-5.07875 l 3.0225,0 0.195,3.0625 0.0788,0 c 0.9325,-1.74375 3.105,-3.49125 6.205,-3.49125 2.6025,0 6.63625,1.5525 6.63625,7.9925 l 0,11.21125 -3.4125,0 0,-10.825 c 0,-3.0225 -1.12875,-5.58625 -4.34625,-5.58625 -2.2125,0 -3.96,1.5925 -4.58,3.49125 -0.15625,0.43 -0.235,1.05 -0.235,1.59125 l 0,11.32875 -3.4125,0 0,-13.69625 z"
       style="fill:#656263;fill-opacity:1;fill-rule:nonzero;stroke:none"
       id="path3522"
       inkscape:connector-curvature="0" />
  </g>
</svg>
